%
M48
M72
T01C0.0236
T02C0.0276
T03C0.0320
T04C0.0354
T05C0.0400
T06C0.0433
T07C0.1102
%
T01
X5500Y6000
X9500Y4500
X9500Y3500
X14000Y5000
X16500Y2500
X10500Y8500
X5500Y11000
X7000Y16500
X5000Y17000
T02
X1717Y5394
X1717Y4606
T03
X10000Y11000
X11000Y11000
X12000Y11000
X13000Y11000
X14000Y11000
X15000Y11000
X16000Y11000
X17000Y11000
X18000Y11000
X19000Y11000
X20000Y11000
X21000Y11000
X22000Y11000
X23000Y11000
X23000Y14000
X22000Y14000
X21000Y14000
X20000Y14000
X19000Y14000
X18000Y14000
X17000Y14000
X16000Y14000
X15000Y14000
X14000Y14000
X13000Y14000
X12000Y14000
X11000Y14000
X10000Y14000
X7500Y15000
X6500Y15000
X22500Y6500
X23000Y7250
X23500Y6500
T04
X3000Y16811
X3000Y18189
T05
X5000Y22000
X6000Y22000
X7000Y22000
X8000Y22000
X9000Y22000
X10000Y22000
X11000Y22000
X12000Y22000
X14000Y22000
X14000Y21000
X15000Y21000
X16000Y21000
X16000Y22000
X15000Y22000
X18000Y22000
X19000Y22000
X20000Y22000
X21000Y22000
X22000Y22000
X23000Y22000
X7000Y3000
X6000Y3000
X5000Y3000
X8500Y1000
X9500Y1000
X10500Y1000
X11500Y1000
X12500Y1000
X13500Y1000
X14500Y1000
X15500Y1000
X17500Y1000
X18500Y1000
T06
X4000Y7000
X1000Y7000
X1000Y12000
X4000Y12000
T07
X2000Y2000
X25000Y2000
X25000Y22000
X2000Y22000
M30
